<?xml version="1.0" encoding="UTF-8"?><svg id="Layer_1" xmlns="http://www.w3.org/2000/svg" viewBox="0 0 1002.14 560.48"><defs><style>.cls-1{font-family:GOST-Common, 'GOST Common';font-size:133.88px;letter-spacing:-.07em;}</style></defs><path d="m125.64,0c6.44,0,9.66,3.22,9.66,9.66v173.96c0,6.44-3.22,9.66-9.66,9.66s-9.66-3.22-9.66-9.66V41.44l-39.39,59.01c-2.64,3.91-5.61,5.86-8.93,5.86s-6.44-1.95-9.08-5.86L19.33,41.44v142.19c0,6.44-3.22,9.66-9.66,9.66s-9.66-3.22-9.66-9.66V9.66C0,3.22,3.22,0,9.66,0c3.51,0,6.34,1.61,8.49,4.83l49.5,74.24L117.44,4.25c1.85-2.83,4.59-4.25,8.2-4.25Z"/><path d="m194.25,193.29c-10.84,0-19.99-3.73-27.46-11.2s-11.2-16.62-11.2-27.46c0-7.03,1.71-13.52,5.13-19.48,7.32-12.79,18.5-19.18,33.53-19.18h133.94v-19.33c0-5.47-1.86-10.05-5.56-13.77-3.71-3.71-8.3-5.56-13.77-5.56h-133.94c-6.44,0-9.66-3.22-9.66-9.66s3.22-9.66,9.66-9.66h133.94c10.84,0,19.99,3.73,27.46,11.2,7.47,7.47,11.2,16.62,11.2,27.46v86.98c0,6.44-3.22,9.66-9.66,9.66h-143.61Zm133.94-57.99h-133.94c-5.37,0-9.93,1.88-13.69,5.64-3.76,3.76-5.64,8.32-5.64,13.69s1.9,9.81,5.71,13.62c3.81,3.81,8.35,5.71,13.62,5.71h133.94v-38.66Z"/><path d="m387.14,77.32h-9.66c-6.44,0-9.66-3.22-9.66-9.66s3.22-9.66,9.66-9.66h9.66V9.66c0-6.44,3.22-9.66,9.66-9.66s9.66,3.22,9.66,9.66v48.32h28.99c6.44,0,9.66,3.22,9.66,9.66s-3.22,9.66-9.66,9.66h-28.99v106.31c0,6.44-3.22,9.66-9.66,9.66s-9.66-3.22-9.66-9.66v-106.31Z"/><path d="m484.74,77.32h-9.66c-6.44,0-9.66-3.22-9.66-9.66s3.22-9.66,9.66-9.66h9.66V9.66c0-6.44,3.22-9.66,9.66-9.66s9.66,3.22,9.66,9.66v48.32h28.99c6.44,0,9.66,3.22,9.66,9.66s-3.22,9.66-9.66,9.66h-28.99v106.31c0,6.44-3.22,9.66-9.66,9.66s-9.66-3.22-9.66-9.66v-106.31Z"/><path d="m563.01,9.66c0-6.44,3.22-9.66,9.66-9.66s9.67,3.22,9.67,9.66v48.32h38.66c10.64,0,19.74,3.71,27.31,11.13,7.56,7.42,11.35,16.35,11.35,26.8v87.71c0,6.44-3.22,9.66-9.66,9.66s-9.66-3.22-9.66-9.66v-86.98c0-5.47-1.86-10.05-5.56-13.77-3.71-3.71-8.3-5.56-13.77-5.56h-38.66v106.31c0,6.44-3.22,9.66-9.67,9.66s-9.66-3.22-9.66-9.66V9.66Z"/><path d="m699.27,135.31v19.33c0,5.27,1.9,9.81,5.71,13.62,3.81,3.81,8.35,5.71,13.62,5.71h118.28c6.44,0,9.66,3.22,9.66,9.66s-3.22,9.66-9.66,9.66h-118.28c-10.84,0-19.99-3.73-27.46-11.2s-11.2-16.62-11.2-27.46v-48.32c0-13.37,4.71-24.77,14.13-34.19,9.42-9.42,20.82-14.13,34.19-14.13s94.97,4.66,104.29,13.98c9.32,9.32,13.98,20.77,13.98,34.34v28.99h-147.27Zm28.99-57.99c-8.01,0-14.84,2.83-20.5,8.49-5.66,5.66-8.49,12.5-8.49,20.5v9.66h127.94v-9.66c0-8-2.83-14.84-8.49-20.5-5.66-5.66-82.45-8.49-90.46-8.49Z"/><path d="m963.48,193.29c-4.49,0-7.61-2.34-9.37-7.03l-19.62-52.57-19.62,52.28c-1.86,4.88-4.98,7.32-9.37,7.32-5.08,0-8.35-3.02-9.81-9.08l-28.55-114.22c-.2-.78-.29-1.71-.29-2.78,0-6.15,3.22-9.23,9.66-9.23,5.08,0,8.2,2.44,9.37,7.32l21.38,85.66,18.01-48.03c1.56-4.2,4.64-6.3,9.22-6.3s7.52,2.1,9.08,6.3l18.01,48.18,21.53-85.81c1.27-4.88,4.39-7.32,9.37-7.32,2.54,0,4.78.9,6.74,2.71,1.95,1.81,2.93,3.98,2.93,6.52,0,1.08-.1,2-.29,2.78l-28.7,114.81c-1.37,5.66-4.59,8.49-9.67,8.49Z"/><path d="m28.99,168.86h48.32c16.11,0,29.8,5.64,41.07,16.91,11.28,11.28,16.91,24.97,16.91,41.07,0,17.18-5.37,31.14-16.11,41.88-10.74,10.74-24.7,16.11-41.88,16.11h-38.66v67.65c0,6.44-3.22,9.66-9.66,9.66s-9.66-3.22-9.66-9.66v-173.97c0-6.44,3.22-9.66,9.66-9.66Zm9.66,19.33v77.32h38.66c10.84,0,19.99-3.73,27.46-11.2s11.2-16.62,11.2-27.46-3.73-19.99-11.2-27.46-16.62-11.2-27.46-11.2h-38.66Z"/><path d="m194.25,362.15c-10.84,0-19.99-3.73-27.46-11.2-7.47-7.47-11.2-16.62-11.2-27.46,0-7.03,1.71-13.52,5.13-19.48,7.32-12.79,18.5-19.18,33.53-19.18h133.94v-19.33c0-5.47-1.86-10.05-5.56-13.77-3.71-3.71-8.3-5.56-13.77-5.56h-133.94c-6.44,0-9.66-3.22-9.66-9.66s3.22-9.66,9.66-9.66h133.94c10.84,0,19.99,3.73,27.46,11.2,7.47,7.47,11.2,16.62,11.2,27.46v86.98c0,6.44-3.22,9.66-9.66,9.66h-143.61Zm133.94-57.99h-133.94c-5.37,0-9.93,1.88-13.69,5.64-3.76,3.76-5.64,8.32-5.64,13.69s1.9,9.81,5.71,13.62c3.81,3.81,8.35,5.71,13.62,5.71h133.94v-38.66Z"/><path d="m367.81,236.51c0-6.44,3.22-9.66,9.66-9.66h57.99c6.44,0,9.66,3.22,9.66,9.66v19.33c0,6.44-3.22,9.66-9.66,9.66s-9.66-3.22-9.66-9.66v-9.66h-38.66v106.31c0,6.44-3.22,9.66-9.66,9.66s-9.66-3.22-9.66-9.66v-115.98Z"/><path d="m465.41,265.51c0-7.03,1.71-13.52,5.13-19.48,7.32-12.79,18.5-19.18,33.53-19.18h38.66v-48.32c0-6.44,3.22-9.66,9.66-9.66s9.66,3.22,9.66,9.66v173.97c0,6.44-3.22,9.66-9.66,9.66h-48.32c-10.84,0-19.99-3.73-27.46-11.2-7.47-7.47-11.2-16.62-11.2-27.46v-57.99Zm38.66-19.33c-5.37,0-9.93,1.88-13.69,5.64-3.76,3.76-5.64,8.32-5.64,13.69v57.99c0,5.27,1.9,9.81,5.71,13.62s8.35,5.71,13.62,5.71h38.66v-96.65h-38.66Z"/><path d="m601.67,304.16v19.33c0,5.27,1.9,9.81,5.71,13.62,3.81,3.81,8.35,5.71,13.62,5.71h48.32c6.44,0,9.67,3.22,9.67,9.67s-3.22,9.66-9.67,9.66h-48.32c-10.84,0-19.99-3.73-27.46-11.2-7.47-7.47-11.2-16.62-11.2-27.46v-48.32c0-13.37,4.71-24.77,14.13-34.19,9.42-9.42,20.82-14.13,34.19-14.13s25.02,4.66,34.34,13.98c9.32,9.32,13.98,20.77,13.98,34.34v28.99h-77.32Zm28.99-57.99c-8.01,0-14.84,2.83-20.5,8.49-5.66,5.66-8.49,12.5-8.49,20.5v9.66h57.99v-9.66c0-8-2.83-14.84-8.49-20.5-5.66-5.66-12.5-8.49-20.5-8.49Z"/><path d="m699.27,265.51c0-7.03,1.71-13.52,5.13-19.48,7.32-12.79,18.5-19.18,33.53-19.18h108.61v-48.32c0-6.44,3.22-9.66,9.66-9.66s9.67,3.22,9.67,9.66v173.97c0,6.44-3.22,9.66-9.67,9.66h-118.28c-10.84,0-19.99-3.73-27.46-11.2-7.47-7.47-11.2-16.62-11.2-27.46v-57.99Zm38.66-19.33c-5.37,0-9.93,1.88-13.69,5.64-3.76,3.76-5.64,8.32-5.64,13.69v57.99c0,5.27,1.9,9.81,5.71,13.62,3.81,3.81,8.35,5.71,13.62,5.71h108.61v-96.65h-108.61Z"/><path d="m905.49,304.16v19.33c0,5.27,1.9,9.81,5.71,13.62,3.81,3.81,8.35,5.71,13.62,5.71h48.32c6.44,0,9.67,3.22,9.67,9.67s-3.22,9.66-9.67,9.66h-48.32c-10.84,0-19.99-3.73-27.46-11.2-7.47-7.47-11.2-16.62-11.2-27.46v-48.32c0-13.37,4.71-24.77,14.13-34.19,9.42-9.42,20.82-14.13,34.19-14.13s25.02,4.66,34.34,13.98c9.32,9.32,13.98,20.77,13.98,34.34v28.99h-77.32Zm28.99-57.99c-8.01,0-14.84,2.83-20.5,8.49-5.66,5.66-8.49,12.5-8.49,20.5v9.66h57.99v-9.66c0-8-2.83-14.84-8.49-20.5-5.66-5.66-12.5-8.49-20.5-8.49Z"/><text class="cls-1"><tspan x="346.39" y="531.45">e.2023</tspan></text></svg>